<?xml version="1.0" encoding="utf-8"?>
<!-- Generator: Adobe Illustrator 16.0.4, SVG Export Plug-In . SVG Version: 6.00 Build 0)  -->
<!DOCTYPE svg PUBLIC "-//W3C//DTD SVG 1.1//EN" "http://www.w3.org/Graphics/SVG/1.1/DTD/svg11.dtd">
<svg version="1.1" id="Layer_1" xmlns="http://www.w3.org/2000/svg" xmlns:xlink="http://www.w3.org/1999/xlink" x="0px" y="0px"
	 width="283.46px" height="204.662px" viewBox="0 0 283.46 204.662" enable-background="new 0 0 283.46 204.662"
	 xml:space="preserve">
<g>
	<polygon fill="#FFFFFF" points="14,14.966 14,17.966 14,56.966 17,56.966 17,17.966 56,17.966 56,14.966 17,14.966 	"/>
	<polygon fill="#FFFFFF" points="17,148.966 14,148.966 14,187.966 14,190.966 17,190.966 56,190.966 56,187.966 17,187.966 	"/>
	<polygon fill="#FFFFFF" points="265,14.966 226,14.966 226,17.966 265,17.966 265,56.966 268,56.966 268,17.966 268,14.966 	"/>
	<polygon fill="#FFFFFF" points="265,187.966 226,187.966 226,190.966 265,190.966 268,190.966 268,187.966 268,148.966 
		265,148.966 	"/>
</g>
</svg>
