<?xml version="1.0" encoding="utf-8"?>
<!-- Generator: Adobe Illustrator 16.0.4, SVG Export Plug-In . SVG Version: 6.00 Build 0)  -->
<!DOCTYPE svg PUBLIC "-//W3C//DTD SVG 1.1//EN" "http://www.w3.org/Graphics/SVG/1.1/DTD/svg11.dtd">
<svg version="1.1" id="Layer_1" xmlns="http://www.w3.org/2000/svg" xmlns:xlink="http://www.w3.org/1999/xlink" x="0px" y="0px"
	 width="1197px" height="673px" viewBox="0 0 1197 673" enable-background="new 0 0 1197 673" xml:space="preserve">
<g>
	<g opacity="0.4">
		<line fill="none" stroke="#FFFFFF" stroke-miterlimit="10" x1="18.5" y1="3" x2="18.5" y2="669"/>
		<line fill="none" stroke="#FFFFFF" stroke-miterlimit="10" x1="3.5" y1="3" x2="3.5" y2="669"/>
		<line fill="none" stroke="#FFFFFF" stroke-miterlimit="10" x1="33.5" y1="3" x2="33.5" y2="669"/>
		<line fill="none" stroke="#FFFFFF" stroke-miterlimit="10" x1="48.5" y1="3" x2="48.5" y2="669"/>
		<line fill="none" stroke="#FFFFFF" stroke-miterlimit="10" x1="63.5" y1="3" x2="63.5" y2="669"/>
		<line fill="none" stroke="#FFFFFF" stroke-miterlimit="10" x1="78.5" y1="3" x2="78.5" y2="669"/>
		<line fill="none" stroke="#FFFFFF" stroke-miterlimit="10" x1="92.5" y1="3" x2="92.5" y2="669"/>
		<line fill="none" stroke="#FFFFFF" stroke-miterlimit="10" x1="107.5" y1="3" x2="107.5" y2="669"/>
		<line fill="none" stroke="#FFFFFF" stroke-miterlimit="10" x1="122.5" y1="3" x2="122.5" y2="669"/>
		<line fill="none" stroke="#FFFFFF" stroke-miterlimit="10" x1="137.5" y1="3" x2="137.5" y2="669"/>
		<line fill="none" stroke="#FFFFFF" stroke-miterlimit="10" x1="152.5" y1="3" x2="152.5" y2="669"/>
		<line fill="none" stroke="#FFFFFF" stroke-miterlimit="10" x1="167.5" y1="3" x2="167.5" y2="669"/>
		<line fill="none" stroke="#FFFFFF" stroke-miterlimit="10" x1="182.5" y1="3" x2="182.5" y2="669"/>
		<line fill="none" stroke="#FFFFFF" stroke-miterlimit="10" x1="197.5" y1="3" x2="197.5" y2="669"/>
		<line fill="none" stroke="#FFFFFF" stroke-miterlimit="10" x1="212.5" y1="3" x2="212.5" y2="669"/>
		<line fill="none" stroke="#FFFFFF" stroke-miterlimit="10" x1="226.5" y1="3" x2="226.5" y2="669"/>
		<line fill="none" stroke="#FFFFFF" stroke-miterlimit="10" x1="241.5" y1="3" x2="241.5" y2="669"/>
		<line fill="none" stroke="#FFFFFF" stroke-miterlimit="10" x1="256.5" y1="3" x2="256.5" y2="669"/>
		<line fill="none" stroke="#FFFFFF" stroke-miterlimit="10" x1="271.5" y1="3" x2="271.5" y2="669"/>
		<line fill="none" stroke="#FFFFFF" stroke-miterlimit="10" x1="286.5" y1="3" x2="286.5" y2="669"/>
		<line fill="none" stroke="#FFFFFF" stroke-miterlimit="10" x1="301.5" y1="3" x2="301.5" y2="669"/>
		<line fill="none" stroke="#FFFFFF" stroke-miterlimit="10" x1="316.5" y1="3" x2="316.5" y2="669"/>
		<line fill="none" stroke="#FFFFFF" stroke-miterlimit="10" x1="331.5" y1="3" x2="331.5" y2="669"/>
		<line fill="none" stroke="#FFFFFF" stroke-miterlimit="10" x1="346.5" y1="3" x2="346.5" y2="669"/>
		<line fill="none" stroke="#FFFFFF" stroke-miterlimit="10" x1="361.5" y1="3" x2="361.5" y2="669"/>
		<line fill="none" stroke="#FFFFFF" stroke-miterlimit="10" x1="375.5" y1="3" x2="375.5" y2="669"/>
		<line fill="none" stroke="#FFFFFF" stroke-miterlimit="10" x1="390.5" y1="3" x2="390.5" y2="669"/>
		<line fill="none" stroke="#FFFFFF" stroke-miterlimit="10" x1="405.5" y1="3" x2="405.5" y2="669"/>
		<line fill="none" stroke="#FFFFFF" stroke-miterlimit="10" x1="420.5" y1="3" x2="420.5" y2="669"/>
		<line fill="none" stroke="#FFFFFF" stroke-miterlimit="10" x1="435.5" y1="3" x2="435.5" y2="669"/>
		<line fill="none" stroke="#FFFFFF" stroke-miterlimit="10" x1="450.5" y1="3" x2="450.5" y2="669"/>
		<line fill="none" stroke="#FFFFFF" stroke-miterlimit="10" x1="465.5" y1="3" x2="465.5" y2="669"/>
		<line fill="none" stroke="#FFFFFF" stroke-miterlimit="10" x1="480.5" y1="3" x2="480.5" y2="669"/>
		<line fill="none" stroke="#FFFFFF" stroke-miterlimit="10" x1="495.5" y1="3" x2="495.5" y2="669"/>
		<line fill="none" stroke="#FFFFFF" stroke-miterlimit="10" x1="510.5" y1="3" x2="510.5" y2="669"/>
		<line fill="none" stroke="#FFFFFF" stroke-miterlimit="10" x1="524.5" y1="3" x2="524.5" y2="669"/>
		<line fill="none" stroke="#FFFFFF" stroke-miterlimit="10" x1="539.5" y1="3" x2="539.5" y2="669"/>
		<line fill="none" stroke="#FFFFFF" stroke-miterlimit="10" x1="554.5" y1="3" x2="554.5" y2="669"/>
		<line fill="none" stroke="#FFFFFF" stroke-miterlimit="10" x1="569.5" y1="3" x2="569.5" y2="669"/>
		<line fill="none" stroke="#FFFFFF" stroke-miterlimit="10" x1="584.5" y1="3" x2="584.5" y2="669"/>
		<line fill="none" stroke="#FFFFFF" stroke-miterlimit="10" x1="599.5" y1="3" x2="599.5" y2="669"/>
		<line fill="none" stroke="#FFFFFF" stroke-miterlimit="10" x1="614.5" y1="3" x2="614.5" y2="669"/>
		<line fill="none" stroke="#FFFFFF" stroke-miterlimit="10" x1="629.5" y1="3" x2="629.5" y2="669"/>
		<line fill="none" stroke="#FFFFFF" stroke-miterlimit="10" x1="644.5" y1="3" x2="644.5" y2="669"/>
		<line fill="none" stroke="#FFFFFF" stroke-miterlimit="10" x1="659.5" y1="3" x2="659.5" y2="669"/>
		<line fill="none" stroke="#FFFFFF" stroke-miterlimit="10" x1="673.5" y1="3" x2="673.5" y2="669"/>
		<line fill="none" stroke="#FFFFFF" stroke-miterlimit="10" x1="688.5" y1="3" x2="688.5" y2="669"/>
		<line fill="none" stroke="#FFFFFF" stroke-miterlimit="10" x1="703.5" y1="3" x2="703.5" y2="669"/>
		<line fill="none" stroke="#FFFFFF" stroke-miterlimit="10" x1="718.5" y1="3" x2="718.5" y2="669"/>
		<line fill="none" stroke="#FFFFFF" stroke-miterlimit="10" x1="733.5" y1="3" x2="733.5" y2="669"/>
		<line fill="none" stroke="#FFFFFF" stroke-miterlimit="10" x1="748.5" y1="3" x2="748.5" y2="669"/>
		<line fill="none" stroke="#FFFFFF" stroke-miterlimit="10" x1="763.5" y1="3" x2="763.5" y2="669"/>
		<line fill="none" stroke="#FFFFFF" stroke-miterlimit="10" x1="778.5" y1="3" x2="778.5" y2="669"/>
		<line fill="none" stroke="#FFFFFF" stroke-miterlimit="10" x1="793.5" y1="3" x2="793.5" y2="669"/>
		<line fill="none" stroke="#FFFFFF" stroke-miterlimit="10" x1="808.5" y1="3" x2="808.5" y2="669"/>
		<line fill="none" stroke="#FFFFFF" stroke-miterlimit="10" x1="822.5" y1="3" x2="822.5" y2="669"/>
		<line fill="none" stroke="#FFFFFF" stroke-miterlimit="10" x1="837.5" y1="3" x2="837.5" y2="669"/>
		<line fill="none" stroke="#FFFFFF" stroke-miterlimit="10" x1="852.5" y1="3" x2="852.5" y2="669"/>
		<line fill="none" stroke="#FFFFFF" stroke-miterlimit="10" x1="867.5" y1="3" x2="867.5" y2="669"/>
		<line fill="none" stroke="#FFFFFF" stroke-miterlimit="10" x1="882.5" y1="3" x2="882.5" y2="669"/>
		<line fill="none" stroke="#FFFFFF" stroke-miterlimit="10" x1="897.5" y1="3" x2="897.5" y2="669"/>
		<line fill="none" stroke="#FFFFFF" stroke-miterlimit="10" x1="912.5" y1="3" x2="912.5" y2="669"/>
		<line fill="none" stroke="#FFFFFF" stroke-miterlimit="10" x1="927.5" y1="3" x2="927.5" y2="669"/>
		<line fill="none" stroke="#FFFFFF" stroke-miterlimit="10" x1="942.5" y1="3" x2="942.5" y2="669"/>
		<line fill="none" stroke="#FFFFFF" stroke-miterlimit="10" x1="957.5" y1="3" x2="957.5" y2="669"/>
		<line fill="none" stroke="#FFFFFF" stroke-miterlimit="10" x1="971.5" y1="3" x2="971.5" y2="669"/>
		<line fill="none" stroke="#FFFFFF" stroke-miterlimit="10" x1="986.5" y1="3" x2="986.5" y2="669"/>
		<line fill="none" stroke="#FFFFFF" stroke-miterlimit="10" x1="1001.5" y1="3" x2="1001.5" y2="669"/>
		<line fill="none" stroke="#FFFFFF" stroke-miterlimit="10" x1="1016.5" y1="3" x2="1016.5" y2="669"/>
		<line fill="none" stroke="#FFFFFF" stroke-miterlimit="10" x1="1031.5" y1="3" x2="1031.5" y2="669"/>
		<line fill="none" stroke="#FFFFFF" stroke-miterlimit="10" x1="1046.5" y1="3" x2="1046.5" y2="669"/>
		<line fill="none" stroke="#FFFFFF" stroke-miterlimit="10" x1="1061.5" y1="3" x2="1061.5" y2="669"/>
		<line fill="none" stroke="#FFFFFF" stroke-miterlimit="10" x1="1076.5" y1="3" x2="1076.5" y2="669"/>
		<line fill="none" stroke="#FFFFFF" stroke-miterlimit="10" x1="1091.5" y1="3" x2="1091.5" y2="669"/>
		<line fill="none" stroke="#FFFFFF" stroke-miterlimit="10" x1="1106.5" y1="3" x2="1106.5" y2="669"/>
		<line fill="none" stroke="#FFFFFF" stroke-miterlimit="10" x1="1120.5" y1="3" x2="1120.5" y2="669"/>
		<line fill="none" stroke="#FFFFFF" stroke-miterlimit="10" x1="1135.5" y1="3" x2="1135.5" y2="669"/>
		<line fill="none" stroke="#FFFFFF" stroke-miterlimit="10" x1="1165.5" y1="3" x2="1165.5" y2="669"/>
		<line fill="none" stroke="#FFFFFF" stroke-miterlimit="10" x1="1150.5" y1="3" x2="1150.5" y2="669"/>
		<line fill="none" stroke="#FFFFFF" stroke-miterlimit="10" x1="1180.5" y1="3" x2="1180.5" y2="669"/>
		<line fill="none" stroke="#FFFFFF" stroke-miterlimit="10" x1="1195.5" y1="3" x2="1195.5" y2="669"/>
	</g>
	<g>
		<line fill="none" stroke="#FFFFFF" stroke-width="3" stroke-miterlimit="10" x1="78.5" y1="4" x2="78.5" y2="19"/>
		<line fill="none" stroke="#FFFFFF" stroke-width="3" stroke-miterlimit="10" x1="152.5" y1="4" x2="152.5" y2="19"/>
		<line fill="none" stroke="#FFFFFF" stroke-width="3" stroke-miterlimit="10" x1="226.5" y1="4" x2="226.5" y2="19"/>
		<line fill="none" stroke="#FFFFFF" stroke-width="3" stroke-miterlimit="10" x1="301.5" y1="4" x2="301.5" y2="19"/>
		<line fill="none" stroke="#FFFFFF" stroke-width="3" stroke-miterlimit="10" x1="375.5" y1="4" x2="375.5" y2="19"/>
		<line fill="none" stroke="#FFFFFF" stroke-width="3" stroke-miterlimit="10" x1="450.5" y1="4" x2="450.5" y2="19"/>
		<line fill="none" stroke="#FFFFFF" stroke-width="3" stroke-miterlimit="10" x1="524.5" y1="4" x2="524.5" y2="19"/>
		<line fill="none" stroke="#FFFFFF" stroke-width="3" stroke-miterlimit="10" x1="599.5" y1="4" x2="599.5" y2="19"/>
		<line fill="none" stroke="#FFFFFF" stroke-width="3" stroke-miterlimit="10" x1="673.5" y1="4" x2="673.5" y2="19"/>
		<line fill="none" stroke="#FFFFFF" stroke-width="3" stroke-miterlimit="10" x1="748.5" y1="4" x2="748.5" y2="19"/>
		<line fill="none" stroke="#FFFFFF" stroke-width="3" stroke-miterlimit="10" x1="822.5" y1="4" x2="822.5" y2="19"/>
		<line fill="none" stroke="#FFFFFF" stroke-width="3" stroke-miterlimit="10" x1="897.5" y1="4" x2="897.5" y2="19"/>
		<line fill="none" stroke="#FFFFFF" stroke-width="3" stroke-miterlimit="10" x1="971.5" y1="4" x2="971.5" y2="19"/>
		<line fill="none" stroke="#FFFFFF" stroke-width="3" stroke-miterlimit="10" x1="1046.5" y1="4" x2="1046.5" y2="19"/>
		<line fill="none" stroke="#FFFFFF" stroke-width="3" stroke-miterlimit="10" x1="1120.5" y1="4" x2="1120.5" y2="19"/>
	</g>
	<g>
		<line fill="none" stroke="#FFFFFF" stroke-width="3" stroke-miterlimit="10" x1="78.5" y1="656" x2="78.5" y2="671"/>
		<line fill="none" stroke="#FFFFFF" stroke-width="3" stroke-miterlimit="10" x1="152.5" y1="656" x2="152.5" y2="671"/>
		<line fill="none" stroke="#FFFFFF" stroke-width="3" stroke-miterlimit="10" x1="226.5" y1="656" x2="226.5" y2="671"/>
		<line fill="none" stroke="#FFFFFF" stroke-width="3" stroke-miterlimit="10" x1="301.5" y1="656" x2="301.5" y2="671"/>
		<line fill="none" stroke="#FFFFFF" stroke-width="3" stroke-miterlimit="10" x1="375.5" y1="656" x2="375.5" y2="671"/>
		<line fill="none" stroke="#FFFFFF" stroke-width="3" stroke-miterlimit="10" x1="450.5" y1="656" x2="450.5" y2="671"/>
		<line fill="none" stroke="#FFFFFF" stroke-width="3" stroke-miterlimit="10" x1="524.5" y1="656" x2="524.5" y2="671"/>
		<line fill="none" stroke="#FFFFFF" stroke-width="3" stroke-miterlimit="10" x1="599.5" y1="656" x2="599.5" y2="671"/>
		<line fill="none" stroke="#FFFFFF" stroke-width="3" stroke-miterlimit="10" x1="673.5" y1="656" x2="673.5" y2="671"/>
		<line fill="none" stroke="#FFFFFF" stroke-width="3" stroke-miterlimit="10" x1="748.5" y1="656" x2="748.5" y2="671"/>
		<line fill="none" stroke="#FFFFFF" stroke-width="3" stroke-miterlimit="10" x1="822.5" y1="656" x2="822.5" y2="671"/>
		<line fill="none" stroke="#FFFFFF" stroke-width="3" stroke-miterlimit="10" x1="897.5" y1="656" x2="897.5" y2="671"/>
		<line fill="none" stroke="#FFFFFF" stroke-width="3" stroke-miterlimit="10" x1="971.5" y1="656" x2="971.5" y2="671"/>
		<line fill="none" stroke="#FFFFFF" stroke-width="3" stroke-miterlimit="10" x1="1046.5" y1="656" x2="1046.5" y2="671"/>
		<line fill="none" stroke="#FFFFFF" stroke-width="3" stroke-miterlimit="10" x1="1120.5" y1="656" x2="1120.5" y2="671"/>
	</g>
	<g opacity="0.4">
		<line fill="none" stroke="#FFFFFF" stroke-miterlimit="10" x1="1193" y1="18.5" x2="3" y2="18.5"/>
		<line fill="none" stroke="#FFFFFF" stroke-miterlimit="10" x1="1193" y1="3.5" x2="3" y2="3.5"/>
		<line fill="none" stroke="#FFFFFF" stroke-miterlimit="10" x1="1193" y1="33.5" x2="3" y2="33.5"/>
		<line fill="none" stroke="#FFFFFF" stroke-miterlimit="10" x1="1193" y1="47.5" x2="3" y2="47.5"/>
		<line fill="none" stroke="#FFFFFF" stroke-miterlimit="10" x1="1193" y1="62.5" x2="3" y2="62.5"/>
		<line fill="none" stroke="#FFFFFF" stroke-miterlimit="10" x1="1193" y1="77.5" x2="3" y2="77.5"/>
		<line fill="none" stroke="#FFFFFF" stroke-miterlimit="10" x1="1193" y1="92.5" x2="3" y2="92.5"/>
		<line fill="none" stroke="#FFFFFF" stroke-miterlimit="10" x1="1193" y1="107.5" x2="3" y2="107.5"/>
		<line fill="none" stroke="#FFFFFF" stroke-miterlimit="10" x1="1193" y1="122.5" x2="3" y2="122.5"/>
		<line fill="none" stroke="#FFFFFF" stroke-miterlimit="10" x1="1193" y1="136.5" x2="3" y2="136.5"/>
		<line fill="none" stroke="#FFFFFF" stroke-miterlimit="10" x1="1193" y1="151.5" x2="3" y2="151.5"/>
		<line fill="none" stroke="#FFFFFF" stroke-miterlimit="10" x1="1193" y1="166.5" x2="3" y2="166.5"/>
		<line fill="none" stroke="#FFFFFF" stroke-miterlimit="10" x1="1193" y1="181.5" x2="3" y2="181.5"/>
		<line fill="none" stroke="#FFFFFF" stroke-miterlimit="10" x1="1193" y1="196.5" x2="3" y2="196.5"/>
		<line fill="none" stroke="#FFFFFF" stroke-miterlimit="10" x1="1193" y1="211.5" x2="3" y2="211.5"/>
		<line fill="none" stroke="#FFFFFF" stroke-miterlimit="10" x1="1193" y1="225.5" x2="3" y2="225.5"/>
		<line fill="none" stroke="#FFFFFF" stroke-miterlimit="10" x1="1193" y1="240.5" x2="3" y2="240.5"/>
		<line fill="none" stroke="#FFFFFF" stroke-miterlimit="10" x1="1193" y1="255.5" x2="3" y2="255.5"/>
		<line fill="none" stroke="#FFFFFF" stroke-miterlimit="10" x1="1193" y1="270.5" x2="3" y2="270.5"/>
		<line fill="none" stroke="#FFFFFF" stroke-miterlimit="10" x1="1193" y1="285.5" x2="3" y2="285.5"/>
		<line fill="none" stroke="#FFFFFF" stroke-miterlimit="10" x1="1193" y1="299.5" x2="3" y2="299.5"/>
		<line fill="none" stroke="#FFFFFF" stroke-miterlimit="10" x1="1193" y1="314.5" x2="3" y2="314.5"/>
		<line fill="none" stroke="#FFFFFF" stroke-miterlimit="10" x1="1193" y1="329.5" x2="3" y2="329.5"/>
		<line fill="none" stroke="#FFFFFF" stroke-miterlimit="10" x1="1193" y1="344.5" x2="3" y2="344.5"/>
		<line fill="none" stroke="#FFFFFF" stroke-miterlimit="10" x1="1193" y1="359.5" x2="3" y2="359.5"/>
		<line fill="none" stroke="#FFFFFF" stroke-miterlimit="10" x1="1193" y1="374.5" x2="3" y2="374.5"/>
		<line fill="none" stroke="#FFFFFF" stroke-miterlimit="10" x1="1193" y1="388.5" x2="3" y2="388.5"/>
		<line fill="none" stroke="#FFFFFF" stroke-miterlimit="10" x1="1193" y1="403.5" x2="3" y2="403.5"/>
		<line fill="none" stroke="#FFFFFF" stroke-miterlimit="10" x1="1193" y1="418.5" x2="3" y2="418.5"/>
		<line fill="none" stroke="#FFFFFF" stroke-miterlimit="10" x1="1193" y1="433.5" x2="3" y2="433.5"/>
		<line fill="none" stroke="#FFFFFF" stroke-miterlimit="10" x1="1193" y1="448.5" x2="3" y2="448.5"/>
		<line fill="none" stroke="#FFFFFF" stroke-miterlimit="10" x1="1193" y1="462.5" x2="3" y2="462.5"/>
		<line fill="none" stroke="#FFFFFF" stroke-miterlimit="10" x1="1193" y1="477.5" x2="3" y2="477.5"/>
		<line fill="none" stroke="#FFFFFF" stroke-miterlimit="10" x1="1193" y1="492.5" x2="3" y2="492.5"/>
		<line fill="none" stroke="#FFFFFF" stroke-miterlimit="10" x1="1193" y1="507.5" x2="3" y2="507.5"/>
		<line fill="none" stroke="#FFFFFF" stroke-miterlimit="10" x1="1193" y1="522.5" x2="3" y2="522.5"/>
		<line fill="none" stroke="#FFFFFF" stroke-miterlimit="10" x1="1193" y1="537.5" x2="3" y2="537.5"/>
		<line fill="none" stroke="#FFFFFF" stroke-miterlimit="10" x1="1193" y1="551.5" x2="3" y2="551.5"/>
		<line fill="none" stroke="#FFFFFF" stroke-miterlimit="10" x1="1193" y1="566.5" x2="3" y2="566.5"/>
		<line fill="none" stroke="#FFFFFF" stroke-miterlimit="10" x1="1193" y1="581.5" x2="3" y2="581.5"/>
		<line fill="none" stroke="#FFFFFF" stroke-miterlimit="10" x1="1193" y1="596.5" x2="3" y2="596.5"/>
		<line fill="none" stroke="#FFFFFF" stroke-miterlimit="10" x1="1193" y1="611.5" x2="3" y2="611.5"/>
		<line fill="none" stroke="#FFFFFF" stroke-miterlimit="10" x1="1193" y1="626.5" x2="3" y2="626.5"/>
		<line fill="none" stroke="#FFFFFF" stroke-miterlimit="10" x1="1193" y1="670.5" x2="3" y2="670.5"/>
		<line fill="none" stroke="#FFFFFF" stroke-miterlimit="10" x1="1193" y1="655.5" x2="3" y2="655.5"/>
		<line fill="none" stroke="#FFFFFF" stroke-miterlimit="10" x1="1193" y1="640.5" x2="3" y2="640.5"/>
	</g>
	<g>
		<line fill="none" stroke="#FFFFFF" stroke-width="3" stroke-miterlimit="10" x1="3" y1="77.5" x2="19" y2="77.5"/>
		<line fill="none" stroke="#FFFFFF" stroke-width="3" stroke-miterlimit="10" x1="3" y1="151.5" x2="19" y2="151.5"/>
		<line fill="none" stroke="#FFFFFF" stroke-width="3" stroke-miterlimit="10" x1="3" y1="225.5" x2="19" y2="225.5"/>
		<line fill="none" stroke="#FFFFFF" stroke-width="3" stroke-miterlimit="10" x1="3" y1="299.5" x2="19" y2="299.5"/>
		<line fill="none" stroke="#FFFFFF" stroke-width="3" stroke-miterlimit="10" x1="3" y1="374.5" x2="19" y2="374.5"/>
		<line fill="none" stroke="#FFFFFF" stroke-width="3" stroke-miterlimit="10" x1="3" y1="448.5" x2="19" y2="448.5"/>
		<line fill="none" stroke="#FFFFFF" stroke-width="3" stroke-miterlimit="10" x1="3" y1="522.5" x2="19" y2="522.5"/>
		<line fill="none" stroke="#FFFFFF" stroke-width="3" stroke-miterlimit="10" x1="3" y1="596.5" x2="19" y2="596.5"/>
	</g>
	<g>
		<line fill="none" stroke="#FFFFFF" stroke-width="3" stroke-miterlimit="10" x1="1180" y1="77.5" x2="1196" y2="77.5"/>
		<line fill="none" stroke="#FFFFFF" stroke-width="3" stroke-miterlimit="10" x1="1180" y1="151.5" x2="1196" y2="151.5"/>
		<line fill="none" stroke="#FFFFFF" stroke-width="3" stroke-miterlimit="10" x1="1180" y1="225.5" x2="1196" y2="225.5"/>
		<line fill="none" stroke="#FFFFFF" stroke-width="3" stroke-miterlimit="10" x1="1180" y1="299.5" x2="1196" y2="299.5"/>
		<line fill="none" stroke="#FFFFFF" stroke-width="3" stroke-miterlimit="10" x1="1180" y1="374.5" x2="1196" y2="374.5"/>
		<line fill="none" stroke="#FFFFFF" stroke-width="3" stroke-miterlimit="10" x1="1180" y1="448.5" x2="1196" y2="448.5"/>
		<line fill="none" stroke="#FFFFFF" stroke-width="3" stroke-miterlimit="10" x1="1180" y1="522.5" x2="1196" y2="522.5"/>
		<line fill="none" stroke="#FFFFFF" stroke-width="3" stroke-miterlimit="10" x1="1180" y1="596.5" x2="1196" y2="596.5"/>
	</g>
	<g>
		<path fill="#FFFFFF" d="M1193,4v665H4V4H1193 M1197,0h-4.172h-1189H0v4.14v665V673h3.829h1189H1197v-3.86v-665V0L1197,0z"/>
	</g>
</g>
</svg>
