<?xml version="1.0" encoding="utf-8"?>
<!-- Generator: Adobe Illustrator 16.0.4, SVG Export Plug-In . SVG Version: 6.00 Build 0)  -->
<!DOCTYPE svg PUBLIC "-//W3C//DTD SVG 1.1//EN" "http://www.w3.org/Graphics/SVG/1.1/DTD/svg11.dtd">
<svg version="1.1" id="Layer_1" xmlns="http://www.w3.org/2000/svg" xmlns:xlink="http://www.w3.org/1999/xlink" x="0px" y="0px"
	 width="1438px" height="519.375px" viewBox="0 0 1438 519.375" enable-background="new 0 0 1438 519.375" xml:space="preserve">
<rect x="-2" y="466" fill="#333333" width="1443" height="54"/>
<path fill="#224248" d="M-3.613,452c0,0,1123.029-26,1441.613,4c0,27,0,50,0,50S881.323,449-4.316,506
	C-4.316,465-3.613,452-3.613,452z"/>
<path fill="#8CD1DD" d="M-3.613,444c0,0,1123.029-26,1441.613,4c0,27,0,50,0,50S881.323,441-4.316,498
	C-4.316,457-3.613,444-3.613,444z"/>
<g>
	<path fill="#8CC8D5" d="M1224.838,63.041c0,0,0.768-6.854,6.447-12.1c5.683-5.246,11.804-10.928,14.249-11.801
		c2.446-0.875,7.78-0.613,11.538,2.185c3.76,2.798,10.841,9.179,13.553,13.637c2.709,4.458,3.146,7.571,3.146,7.571L1224.838,63.041
		z"/>
	<polygon fill="#32545A" points="1240.291,365.999 1229.801,469 1277.53,469 1267.564,365.999 	"/>
	<polygon fill="#32545A" points="1245.929,338.001 1248.682,103 1253.403,103 1261.795,338.001 	"/>
	<rect x="1232" y="353" fill="#32545A" width="42" height="14"/>
	<rect x="1222" y="123" fill="#32545A" width="64" height="4"/>
	<path fill="#32545A" d="M1274.125,62l-6.515,35.506c0,0,3.383,3.729-1.162,4.778c-4.545,1.049-30.039,1.655-30.039,1.655
		s-3.464-3.939-1.017-3.939c2.448,0,3.321,0,3.321,0l-14.86-31.785c0,0-2.621,0.075-1.922-2.195c0.698-2.271,6.293-4.02,6.293-4.02
		H1274.125z"/>
	<path fill="#32545A" d="M1245.929,38.877c0,0,1.679-6.645,2.041-8.392c0.364-1.749,2.109-5.245,2.287-1.749
		c0.175,3.497,3.146,9.092,3.146,11.364C1248.334,39.752,1245.929,38.877,1245.929,38.877z"/>
	<polygon fill="#C9F035" points="1228.229,67 1251,67 1251,98 1240.814,98 	"/>
	<polygon fill="#C9F035" points="1255.24,66.54 1269.707,64.286 1264.943,97 1253.403,98 	"/>
	<path fill="#8CC8D5" d="M1234.172,353c0,0-1.049-9.938-1.049-12.387c0-2.447,0.873-3.57,5.242-3.223
		c4.372,0.352,27.103-0.068,30.6-0.012c3.496,0.062,5.418-0.986,5.418,4.78c0.002,5.771-0.873,10.838-0.873,10.838L1234.172,353
		L1234.172,353z"/>
	<path fill="#76BFCB" d="M1235.036,353c0,0-0.896-7.729-0.896-9.632s2.746-2.777,6.479-2.507c3.73,0.273,23.135-0.053,26.118-0.006
		s6.625-0.771,6.625,3.717c0.001,4.486-0.746,8.428-0.746,8.428H1235.036L1235.036,353z"/>
	<path fill="#8CC8D5" d="M1222.895,123c0,0-2.098-5.607,3.847-7.27c5.944-1.66,19.146-1.622,19.146-1.622s20.173-1.161,23.801-1.25
		c3.627-0.088,10.433-0.93,12.881,0.031c2.447,0.96,2.437,3.964,2.437,5.888c0,1.922,0,4.223,0,4.223H1222.895z"/>
	<path fill="#76BFCB" d="M1224.209,123c0,0-1.998-4.975,3.662-6.445c5.665-1.475,18.24-0.438,18.24-0.438s19.215-1.03,22.67-1.109
		c3.457-0.075,8.119-1.26,10.584-0.972c2.658,0.312,3.635,3.516,3.635,5.222c0,1.705,0,3.745,0,3.745L1224.209,123L1224.209,123z"/>
	<path fill="#76BFCB" d="M1226.588,63.041c0,0,0.713-5.213,5.986-9.203c5.274-3.987,10.957-8.312,13.229-8.976
		c2.271-0.665,7.225-0.466,10.712,1.661c3.491,2.129,10.066,6.98,12.582,10.373c2.517,3.391,2.923,4.997,2.923,4.997
		L1226.588,63.041z"/>
</g>
</svg>
