<?xml version="1.0" encoding="utf-8"?>
<!-- Generator: Adobe Illustrator 16.0.4, SVG Export Plug-In . SVG Version: 6.00 Build 0)  -->
<!DOCTYPE svg PUBLIC "-//W3C//DTD SVG 1.1//EN" "http://www.w3.org/Graphics/SVG/1.1/DTD/svg11.dtd">
<svg version="1.1" id="Layer_1" xmlns="http://www.w3.org/2000/svg" xmlns:xlink="http://www.w3.org/1999/xlink" x="0px" y="0px"
	 width="1026.719px" height="528.213px" viewBox="0 0 1026.719 528.213" enable-background="new 0 0 1026.719 528.213"
	 xml:space="preserve">
<g>
	<rect x="10" y="10" fill="#CD0000" width="15.125" height="13"/>
	<g>
		<rect x="16" y="12" fill="#FFFFFF" width="3" height="9"/>
		<rect x="13" y="15" fill="#FFFFFF" width="9" height="3"/>
	</g>
</g>
<g>
	<path fill="#AA000B" d="M139.815,407.789c14.668-1,61.334-10.915,59.334,29.417c-0.656,13.248-0.307,24.884-1.561,34.439
		c-2.105,26.978-11.828,30.394-50.105,28.603c-57-2.667-95.145-3.645-116.479-4.979s-31.146-3.935-31.146-23.624s0-30.689,0-30.689
		s-1.188-19.667,26.812-22S139.815,407.789,139.815,407.789z"/>
	<path fill="#CD0000" d="M139.815,401.789c14.668-1,61.334-10.914,59.334,29.417c-0.656,13.248-0.307,24.884-1.561,34.439
		c-2.105,26.978-11.828,30.394-50.105,28.603c-57-2.667-95-3.645-116.334-4.979s-31-3.935-31-23.624s0-30.689,0-30.689
		s-1.334-19.667,26.666-22S139.815,401.789,139.815,401.789z"/>
</g>
<path fill="#AA000B" d="M359.815,407.789c14.668-1,61.334-10.915,59.334,29.417c-0.657,13.248-0.307,24.884-1.561,34.439
	c-2.105,26.978-11.828,30.394-50.105,28.603c-57-2.667-95.145-3.645-116.479-4.979s-31.146-3.935-31.146-23.624s0-30.689,0-30.689
	s-1.188-19.667,26.812-22S359.815,407.789,359.815,407.789z"/>
<path fill="#CD0000" d="M359.815,404.789c14.668-1,61.334-10.914,59.334,29.417c-0.657,13.248-0.307,24.884-1.561,34.439
	c-2.105,26.978-11.828,30.394-50.105,28.603c-57-2.667-95-3.645-116.334-4.979s-31-3.935-31-23.624s0-30.689,0-30.689
	s-1.334-19.667,26.666-22S359.815,404.789,359.815,404.789z"/>
<g>
	<path fill="#333333" d="M168.217,52.25c-49.704,0-89.998,40.295-89.998,89.999c0,49.706,40.294,90.001,89.998,90.001
		c49.707,0,90.002-40.295,90.002-90.001C258.219,92.545,217.924,52.25,168.217,52.25z M246.31,139.607h-48.387l-3.962,1H166.86
		v-24.101l2-3.961V64.158c21,0.515,39.623,8.287,53.895,22.556C237.024,100.986,245.796,119.607,246.31,139.607z M111.824,86.715
		c14.27-14.27,33.035-22.042,52.035-22.556v48.387l2,3.961v24.101h-23.385l-3.962-1H90.128
		C90.642,119.607,97.553,100.986,111.824,86.715z M90.128,143.607h48.385l3.962-1h23.385v25.387l-2,3.961v48.386
		c-19-0.513-37.766-8.927-52.035-23.198C97.553,182.872,90.642,164.607,90.128,143.607z M222.754,197.142
		c-14.271,14.271-32.895,22.686-53.895,23.198v-48.386l-2-3.961v-25.387h27.102l3.962,1h48.387
		C245.796,164.607,237.024,182.872,222.754,197.142z"/>
	<path fill="#009245" d="M111.747,63.984c15.405-12.345,34.954-19.733,56.231-19.733s40.826,7.389,56.231,19.733l9.11-9.111
		c-17.764-14.64-40.525-23.433-65.342-23.433s-47.578,8.793-65.342,23.434L111.747,63.984z"/>
	<path fill="#009245" d="M111.747,220.517c15.405,12.345,34.954,19.733,56.231,19.733s40.826-7.389,56.231-19.733l9.11,9.111
		c-17.764,14.64-40.525,23.433-65.342,23.433s-47.578-8.793-65.342-23.434L111.747,220.517z"/>
</g>
<path fill="#333333" d="M394.989,52.25c-49.704,0-89.998,40.295-89.998,89.999c0,49.706,40.294,90.001,89.998,90.001
	c49.707,0,90.002-40.295,90.002-90.001C484.99,92.545,444.696,52.25,394.989,52.25z M473.081,139.607h-48.387l-3.962,1H393.86
	v-24.101l2-3.961V64.158c21,0.515,39.509,8.287,53.78,22.556C463.909,100.986,472.568,119.607,473.081,139.607z M338.71,86.715
	c14.27-14.27,33.149-22.042,52.149-22.556v48.387l2,3.961v24.101h-23.613l-3.962-1H316.9
	C317.413,119.607,324.439,100.986,338.71,86.715z M316.9,143.607h48.385l3.962-1h23.613v25.387l-2,3.961v48.386
	c-19-0.513-37.88-8.927-52.149-23.198C324.439,182.872,317.413,164.607,316.9,143.607z M449.64,197.142
	c-14.271,14.271-32.78,22.686-53.78,23.198v-48.386l-2-3.961v-25.387h26.873l3.962,1h48.387
	C472.568,164.607,463.909,182.872,449.64,197.142z"/>
</svg>
